<svg width="74" height="49" viewBox="0 0 74 49" fill="none" xmlns="http://www.w3.org/2000/svg">
<path d="M31.4776 29.8195C31.434 30.5625 31.5185 31.3067 31.7287 32.0325C31.7287 33.0809 32.0801 34.0904 32.3311 35.1388C32.4805 35.6972 32.3552 36.2786 31.9796 36.7695C30.9952 38.0494 29.7779 39.2132 28.365 40.2251C25.4179 42.5599 21.7574 44.2824 17.7219 45.2338C15.6651 45.7634 13.4736 45.9023 11.3327 45.6388C9.19188 45.3752 7.16446 44.7169 5.42194 43.7196C3.97761 42.8998 2.76505 41.8604 1.8586 40.6653C0.95215 39.4702 0.370973 38.1445 0.150628 36.7695C-0.753035 32.4596 2.61054 28.2663 6.67703 28.7322C7.30315 28.7433 7.91243 28.8914 8.43418 29.1593C8.5825 29.2251 8.70367 29.3219 8.78365 29.4387C8.86363 29.5556 8.89911 29.6877 8.88599 29.8195C8.88599 30.2077 8.48444 30.2077 8.18322 30.1689C7.63842 30.124 7.08745 30.1625 6.56197 30.2824C6.03648 30.4023 5.54671 30.6013 5.12073 30.8678C3.90715 31.748 3.15473 32.9427 3.0066 34.2244C2.85847 35.506 3.32513 36.7851 4.31761 37.8179C4.97543 38.5986 5.86575 39.2458 6.91404 39.7052C7.96233 40.1646 9.1379 40.4228 10.3419 40.4581C12.4921 40.4232 14.5999 39.9887 16.4873 39.1913C18.3747 38.3939 19.9862 37.257 21.1859 35.8765C23.4334 33.5914 25.3682 31.1321 26.9593 28.5381C28.3626 26.2215 30.0434 24.0116 31.9796 21.9374C33.1137 20.5917 34.5877 19.4372 36.3132 18.5431C38.0386 17.649 39.9798 17.0338 42.0204 16.7346C44.4535 16.459 46.9367 16.7995 49.0991 17.7053C50.1156 18.1674 51.1927 18.5449 52.3122 18.8313C54.5713 19.2972 55.977 17.7829 56.5292 15.8804C56.8622 14.4805 57.0967 13.0677 57.232 11.6482C57.3095 8.23185 58.6892 4.90922 61.1981 2.09674C61.8588 1.26655 62.8638 0.634102 64.0492 0.30266C65.2346 -0.028783 66.5302 -0.0396496 67.7245 0.271852H68.1764C69.305 0.942963 70.5573 1.47957 71.8915 1.86378C72.7026 2.19738 73.363 2.71425 73.7846 3.34552C74.2061 3.97678 74.3689 4.69245 74.2511 5.39708C74.2511 6.48424 73.8996 6.7948 72.8955 6.7948C70.9373 6.87555 68.9774 6.66463 67.1221 6.17355C66.7707 6.17355 66.1683 6.17361 66.1181 6.60071C66.0679 7.02781 66.62 6.95014 66.9213 7.06662C68.6764 7.60206 70.5595 7.84035 72.4437 7.76548C72.4437 7.76548 72.9458 7.76548 72.996 7.76548C73.0462 7.76548 72.996 8.23146 72.996 8.4256C72.8193 8.72968 72.548 8.99515 72.2064 9.1984C71.8647 9.40165 71.4633 9.53631 71.038 9.59037C70.3863 9.62903 69.7318 9.62903 69.0801 9.59037C66.3691 9.59037 64.5618 11.1823 64.0598 14.0555C63.6581 15.7639 63.5578 17.5112 63.3068 19.2196C62.8715 23.534 60.8702 27.6658 57.5332 31.1396C57.0961 31.575 56.5901 31.9662 56.0272 32.3043C56.0272 32.3043 55.7259 32.5373 55.4749 32.3043C56.4708 30.861 57.1496 29.2995 57.4831 27.6839C57.4831 27.6839 57.2321 27.684 57.1317 27.8781C56.0752 29.1255 55.1194 30.4222 54.27 31.7608C53.8647 32.3038 53.6512 32.9198 53.6512 33.5468C53.6512 34.1739 53.8647 34.7898 54.27 35.3329C54.6748 35.9255 54.9152 36.577 54.9757 37.2455C55.0362 37.9141 54.9156 38.5851 54.6215 39.2156C54.4118 39.8583 53.9136 40.4226 53.2158 40.8075C53.0515 40.8422 52.8781 40.8422 52.7137 40.8075C52.4125 40.8075 52.2117 40.6911 52.1113 40.4581C52.025 40.361 51.9788 40.2459 51.9788 40.1281C51.9788 40.0102 52.025 39.8951 52.1113 39.798C52.6816 39.2471 52.9924 38.5624 52.9924 37.8566C52.9924 37.1509 52.6816 36.4662 52.1113 35.9152C51.5343 35.3312 51.1277 34.6574 50.9197 33.9402C50.7117 33.223 50.7072 32.4795 50.9065 31.7608C50.9065 31.7608 50.9065 31.4501 50.9065 31.3337C50.9065 31.2172 50.6052 31.3337 50.5048 31.3337C49.7923 31.9419 49.3829 32.7265 49.35 33.5468C49.35 33.8575 49.3501 33.974 48.9485 34.0516C47.2741 34.632 45.4617 34.9361 43.6269 34.9446C43.2755 34.9446 43.1751 34.9445 43.1751 34.4398C43.2714 32.9386 43.0853 31.4346 42.6228 29.9747V29.4699C42.5233 29.6965 42.5233 29.9423 42.6228 30.1689C42.6228 31.4502 42.6228 32.7315 42.3718 34.0516C42.258 35.6626 41.543 37.2134 40.3135 38.5167C39.4208 39.4112 38.6786 40.3897 38.1045 41.4288C37.4779 42.5848 37.3718 43.8702 37.8033 45.0785C38.0543 45.8551 38.3053 46.0492 39.0584 46.0104C39.7646 46.0378 40.4403 46.242 40.9836 46.5922C41.5268 46.9423 41.9083 47.4194 42.0706 47.9517C42.0706 48.4565 42.0705 48.6118 41.6689 48.6118H34.8915C34.0381 48.6118 33.787 48.4176 33.5862 47.5634C32.808 44.4995 32.808 41.3477 33.5862 38.2838C33.9401 37.5464 34.2417 36.7945 34.4898 36.0317C34.6463 34.6169 34.4416 33.1922 33.8874 31.8384C33.2368 31.0653 32.4221 30.3827 31.4776 29.8195Z" fill="black"/>
</svg>
