<svg width="74" height="49" id="Capa_1" data-name="Capa 1" xmlns="http://www.w3.org/2000/svg" viewBox="0 0 14.74 12.62"><defs><style>.cls-1{fill:#fff;}</style></defs><path d="M479.8,489.89a2.16,2.16,0,0,0,.05.57c0,.27.07.53.12.8a.59.59,0,0,1-.07.42,4,4,0,0,1-.72.89,5,5,0,0,1-2.12,1.29,2.69,2.69,0,0,1-2.45-.39,2.62,2.62,0,0,1-1.05-1.79c-.18-1.11.49-2.19,1.3-2.07a.66.66,0,0,1,.35.11.18.18,0,0,1,.09.17c0,.1-.08.1-.14.09a.83.83,0,0,0-.61.18,1.35,1.35,0,0,0-.16,1.79,1.5,1.5,0,0,0,1.2.68,2.67,2.67,0,0,0,2.16-1.18,10.69,10.69,0,0,0,1.15-1.89,10.55,10.55,0,0,1,1-1.7,3.07,3.07,0,0,1,2-1.34,2.27,2.27,0,0,1,1.41.25,3.32,3.32,0,0,0,.64.29c.45.12.73-.27.84-.76a10.15,10.15,0,0,0,.14-1.09,4.47,4.47,0,0,1,.79-2.46,1.11,1.11,0,0,1,1.3-.47l.09,0a2.84,2.84,0,0,0,.74.41.9.9,0,0,1,.47.91c0,.28-.07.36-.27.36a3.05,3.05,0,0,1-1.15-.16h0c-.07,0-.19,0-.2.11s.1.09.16.12a2.63,2.63,0,0,0,1.1.18s.1,0,.11,0,0,.12,0,.17a.52.52,0,0,1-.39.3,2.55,2.55,0,0,1-.39,0c-.54,0-.9.41-1,1.15-.08.44-.1.89-.15,1.33a5.92,5.92,0,0,1-1.15,3.07,1.7,1.7,0,0,1-.3.3s-.06.06-.11,0a3.8,3.8,0,0,0,.4-1.19s-.05,0-.07.05a9.31,9.31,0,0,0-.57,1,.92.92,0,0,0,0,.92,1.24,1.24,0,0,1,.07,1,.72.72,0,0,1-.28.41.19.19,0,0,1-.1,0q-.09,0-.12-.09a.15.15,0,0,1,0-.17.8.8,0,0,0,0-1,1.31,1.31,0,0,1-.24-1.07s0-.08,0-.11-.06,0-.08,0a.89.89,0,0,0-.23.57c0,.08,0,.11-.08.13a2.63,2.63,0,0,1-1.06.23c-.07,0-.09,0-.09-.13a4,4,0,0,0-.11-1.15l0-.13,0,0a.28.28,0,0,0,0,.18c0,.33,0,.66-.05,1a2.15,2.15,0,0,1-.41,1.15,3.44,3.44,0,0,0-.44.75,1.44,1.44,0,0,0-.06.94c.05.2.1.25.25.24a.65.65,0,0,1,.6.5c0,.13,0,.17-.08.17h-1.35c-.17,0-.22-.05-.26-.27a6.2,6.2,0,0,1,0-2.39,5.58,5.58,0,0,0,.18-.58,2.79,2.79,0,0,0-.12-1.08A2.11,2.11,0,0,0,479.8,489.89Z" transform="translate(-473.53 -482.21)"/><path d="M483.18,491.64a2.36,2.36,0,0,1-.21.94,2.08,2.08,0,0,0-.14,1.14,1,1,0,0,0,.1.31c.05.1.11.15.2.14a.64.64,0,0,1,.63.48c.05.14,0,.18-.08.18h-1.34c-.17,0-.21-.05-.26-.27a12.15,12.15,0,0,1-.21-1.7s0-.05,0-.07-.06-.32,0-.42.18-.11.28-.16c.3-.14.6-.33.9-.5Z" transform="translate(-473.53 -482.21)"/><path d="M485.07,492a1,1,0,0,1-.29.74.28.28,0,0,1-.13.07c-.06,0-.1,0-.13-.08a.19.19,0,0,1,0-.19.86.86,0,0,0,.15-.52.77.77,0,0,0-.12-.43.15.15,0,0,1,0-.21,1.25,1.25,0,0,0,.08-.12c.12-.18.09-.23.23,0A1.26,1.26,0,0,1,485.07,492Z" transform="translate(-473.53 -482.21)"/><path class="cls-1" d="M486.84,483.18c-.08,0-.14-.1-.14-.21s.07-.22.15-.21.15.1.15.2S486.92,483.18,486.84,483.18Z" transform="translate(-473.53 -482.21)"/></svg>